<?xml version="1.0" standalone="no"?>
<!DOCTYPE svg PUBLIC "-//W3C//DTD SVG 20010904//EN"
 "http://www.w3.org/TR/2001/REC-SVG-20010904/DTD/svg10.dtd">
<svg version="1.0" xmlns="http://www.w3.org/2000/svg"
 width="600.000000pt" height="600.000000pt" viewBox="0 0 600.000000 600.000000"
 preserveAspectRatio="xMidYMid meet">
<metadata>
Created by potrace 1.11, written by Peter Selinger 2001-2013
</metadata>
<g transform="translate(0.000000,600.000000) scale(0.100000,-0.100000)"
fill="#000000" stroke="none">
<path d="M2960 5773 c-42 -18 -83 -36 -90 -38 -3 -1 -16 -6 -30 -12 -14 -6
-113 -48 -220 -93 -107 -45 -211 -88 -230 -97 -60 -26 -68 -29 -365 -154 -290
-121 -362 -152 -400 -169 -20 -9 -75 -32 -85 -35 -3 -1 -23 -9 -45 -19 -22 -9
-78 -33 -125 -53 -47 -19 -98 -41 -115 -48 -16 -8 -102 -44 -190 -80 -88 -37
-176 -73 -195 -82 -19 -8 -44 -19 -55 -23 -11 -5 -40 -17 -65 -28 -25 -11 -85
-36 -135 -57 -49 -20 -103 -43 -120 -51 -16 -7 -73 -31 -125 -52 -52 -22 -113
-48 -135 -58 -22 -10 -42 -18 -45 -19 -3 0 -47 -18 -98 -39 l-92 -39 0 -1531
0 -1532 38 -17 c20 -9 98 -41 172 -72 74 -31 149 -63 165 -70 17 -7 71 -30
120 -50 50 -21 108 -46 131 -56 22 -10 65 -28 95 -39 30 -12 68 -28 84 -35 17
-8 75 -32 130 -55 55 -23 115 -48 133 -56 188 -83 261 -112 266 -106 3 3 6 0
6 -6 0 -7 5 -12 12 -12 11 0 88 -31 223 -90 22 -10 81 -34 130 -55 50 -20 114
-48 143 -61 29 -13 59 -24 67 -24 7 0 16 -4 19 -9 3 -4 27 -16 53 -26 26 -10
66 -26 88 -35 57 -25 279 -119 425 -180 69 -29 144 -61 167 -71 23 -11 44 -19
46 -19 3 0 26 -10 53 -22 27 -12 51 -22 54 -23 5 0 121 -50 155 -66 19 -9 71
7 180 56 17 7 102 43 190 80 88 36 176 73 195 82 19 9 41 16 48 16 6 0 12 3
12 7 0 3 17 12 38 19 35 13 91 36 159 67 17 8 34 14 37 14 5 0 74 30 162 71
23 10 45 19 50 19 5 0 26 9 47 20 20 11 38 20 39 19 2 0 14 4 28 10 14 5 59
24 100 41 41 17 94 40 117 51 24 10 45 19 48 19 2 0 30 12 62 26 83 36 86 37
223 94 69 28 139 57 155 65 34 16 73 32 165 70 36 15 79 33 95 40 17 8 53 23
80 33 28 11 76 32 107 46 31 14 59 26 62 26 4 0 25 9 49 19 59 27 81 34 90 33
4 -1 7 2 7 7 0 5 12 12 28 17 39 11 47 14 132 52 159 70 213 92 226 92 8 0 14
4 14 10 0 5 3 9 8 8 4 -2 22 3 40 11 l32 13 0 1533 0 1532 -67 28 c-38 15 -92
39 -121 52 -29 12 -55 23 -58 23 -3 0 -24 9 -47 19 -23 10 -125 54 -227 96
-102 43 -207 87 -235 99 -27 13 -88 38 -135 57 -47 19 -86 37 -88 42 -2 4 -10
7 -18 7 -12 0 -49 15 -189 76 -36 15 -88 37 -95 39 -3 1 -18 7 -35 15 -16 7
-45 19 -62 26 -18 8 -48 20 -65 28 -146 64 -332 139 -334 134 0 -2 -7 2 -15 8
-8 7 -97 47 -199 89 -102 42 -198 83 -215 90 -16 8 -70 30 -119 50 -49 20 -96
41 -105 45 -22 12 -570 240 -573 239 -2 0 -19 -8 -38 -16z m118 -456 c26 -11
48 -20 49 -19 2 1 38 -15 80 -34 114 -51 111 -49 208 -89 50 -21 104 -43 120
-50 17 -8 64 -28 105 -45 133 -56 151 -63 257 -109 39 -17 73 -31 76 -31 2 0
26 -10 53 -22 27 -12 51 -23 54 -23 5 -1 40 -17 95 -41 28 -13 195 -83 485
-204 69 -29 139 -58 155 -65 17 -8 59 -26 95 -40 36 -15 79 -33 95 -41 25 -11
382 -160 530 -221 22 -9 44 -20 49 -25 12 -10 15 -948 3 -948 -4 0 -23 7 -43
15 -19 8 -36 15 -39 15 -9 2 -454 188 -545 228 -19 9 -37 16 -40 17 -3 1 -16
6 -30 12 -14 6 -65 28 -115 48 -49 21 -94 40 -100 43 -5 4 -12 7 -15 7 -4 0
-132 54 -340 142 -19 8 -43 19 -52 24 -10 5 -25 9 -33 9 -8 0 -15 5 -15 10 0
6 -3 9 -7 8 -5 0 -17 2 -28 7 -39 15 -162 66 -270 113 -38 16 -110 46 -160 67
-49 20 -103 43 -120 50 -16 7 -118 50 -225 95 -210 88 -236 99 -320 135 -30
13 -64 27 -76 30 -18 4 -145 -42 -269 -100 -16 -7 -68 -29 -115 -48 -47 -20
-103 -44 -125 -53 -22 -10 -44 -18 -50 -20 -5 -1 -30 -11 -55 -22 -94 -42
-143 -62 -156 -62 -8 0 -14 -4 -14 -10 0 -5 -5 -10 -11 -10 -9 0 -308 -123
-424 -174 -47 -21 -259 -110 -265 -112 -3 0 -23 -9 -45 -18 -22 -10 -83 -36
-135 -58 -52 -21 -104 -43 -115 -48 -11 -5 -48 -21 -82 -36 -35 -15 -63 -30
-63 -33 0 -3 24 -15 53 -25 28 -10 75 -29 102 -42 43 -20 99 -44 115 -49 3 -1
16 -6 30 -12 48 -21 85 -36 90 -38 3 -1 21 -8 40 -17 19 -8 103 -43 185 -78
83 -34 168 -70 190 -80 22 -10 81 -34 130 -55 50 -20 104 -43 120 -50 17 -7
86 -37 155 -65 69 -29 139 -58 155 -65 54 -24 178 -76 265 -112 47 -19 99 -40
115 -48 17 -7 46 -19 65 -28 19 -8 139 -58 265 -112 281 -118 262 -110 307
-129 20 -9 67 -29 105 -44 37 -16 119 -51 182 -78 l114 -48 -39 -18 c-33 -15
-86 -37 -104 -43 -3 -1 -16 -7 -30 -13 -14 -6 -70 -30 -125 -52 -55 -23 -118
-50 -140 -60 -73 -32 -400 -168 -421 -174 -17 -5 -334 120 -579 229 -16 8
-156 66 -310 130 -154 64 -304 128 -333 141 -29 13 -55 24 -57 24 -3 0 -27 10
-53 21 -54 24 -74 33 -197 84 -49 20 -103 43 -120 50 -158 69 -939 395 -946
395 -5 0 -9 3 -10 8 -1 4 -2 259 -3 566 l-1 559 60 27 c33 15 89 40 125 55 36
15 85 36 110 47 25 11 50 21 55 23 12 2 55 20 105 42 158 70 324 138 332 135
5 -1 8 2 8 8 0 5 7 10 15 10 8 0 23 4 33 10 32 18 256 110 267 110 6 0 16 5
23 12 6 6 17 13 24 14 11 2 277 112 383 159 17 7 102 43 190 80 88 36 169 70
180 75 11 5 46 20 78 34 32 14 60 26 62 26 3 0 24 9 48 19 71 32 185 81 190
81 3 0 31 12 63 27 33 15 64 28 69 29 6 1 33 12 60 25 116 53 112 52 193 16z
m108 -1442 c98 -41 188 -79 199 -84 11 -5 76 -33 145 -62 69 -28 153 -65 188
-80 35 -16 65 -29 67 -29 5 0 689 -286 730 -305 17 -8 80 -35 140 -60 61 -25
133 -55 160 -67 28 -11 64 -27 80 -33 136 -57 357 -151 385 -163 19 -9 37 -16
40 -17 9 -3 169 -70 240 -101 l35 -16 0 -560 -1 -560 -25 -13 c-13 -7 -112
-50 -219 -94 -107 -45 -208 -88 -225 -95 -16 -8 -113 -49 -215 -91 -102 -42
-204 -86 -227 -96 -23 -10 -44 -19 -46 -19 -3 0 -26 -10 -53 -22 -27 -12 -51
-23 -54 -23 -3 0 -27 -11 -54 -23 -27 -12 -55 -22 -62 -22 -8 0 -14 -5 -14
-10 0 -6 -3 -9 -7 -8 -7 3 -147 -54 -278 -112 -123 -55 -453 -190 -462 -190
-7 0 -13 -4 -13 -10 0 -5 -6 -10 -13 -10 -6 0 -66 -23 -132 -51 -66 -28 -205
-86 -308 -130 l-189 -79 -256 109 c-142 60 -286 121 -322 136 -36 14 -78 32
-95 40 -16 7 -102 44 -190 80 -88 37 -243 102 -345 145 -102 43 -230 97 -285
119 -55 23 -109 46 -120 51 -34 16 -447 190 -451 190 -2 0 -27 11 -56 24 -29
13 -105 45 -168 71 -63 26 -133 55 -155 65 -22 9 -65 28 -95 41 l-55 24 1 470
c1 259 2 473 3 477 1 5 97 -33 216 -86 17 -8 98 -42 180 -76 83 -34 168 -70
190 -79 22 -10 72 -31 110 -46 39 -16 75 -33 81 -37 7 -5 20 -11 30 -13 18 -3
134 -52 231 -96 24 -10 45 -19 47 -19 4 0 414 -172 451 -190 11 -5 49 -21 85
-36 61 -24 79 -32 163 -68 17 -8 113 -48 212 -89 182 -76 453 -190 490 -206
11 -5 36 -16 57 -25 20 -9 41 -16 47 -16 6 0 156 61 334 136 177 75 408 172
512 216 105 43 204 85 220 92 17 7 41 18 55 24 38 15 96 40 133 56 111 50 418
176 427 176 5 0 10 5 10 10 0 6 6 10 14 10 8 0 60 19 115 43 l101 44 -127 52
c-71 29 -146 61 -168 71 -114 49 -175 75 -225 95 -30 13 -201 84 -380 160
-399 168 -374 158 -380 160 -3 1 -21 8 -40 17 -19 8 -64 27 -100 42 -36 15
-78 33 -95 41 -16 7 -57 24 -90 38 -51 21 -327 137 -405 170 -14 6 -27 11 -30
11 -3 1 -9 4 -15 8 -5 3 -50 22 -100 42 -49 21 -103 43 -120 51 -16 7 -100 42
-185 78 -85 36 -195 82 -245 103 l-89 38 59 26 c33 14 98 42 145 60 47 19 88
39 91 43 3 5 9 8 13 7 8 -3 33 7 325 132 124 53 231 97 237 97 6 1 92 -33 190
-74z"/>
</g>
</svg>
